<mxfile host="app.diagrams.net" modified="2021-12-08T02:33:48.657Z" agent="5.0 (Windows NT 10.0; Win64; x64) AppleWebKit/537.36 (KHTML, like Gecko) Chrome/96.0.4664.93 Safari/537.36" etag="XF6Dq1BbnjFSNy52wZ-o" version="15.9.1" type="github">
  <diagram name="Page-1" id="5d7acffa-a066-3a61-03fe-96351882024d">
    <mxGraphModel dx="1422" dy="754" grid="1" gridSize="10" guides="1" tooltips="1" connect="1" arrows="1" fold="1" page="1" pageScale="1" pageWidth="1100" pageHeight="850" background="#ffffff" math="0" shadow="0">
      <root>
        <mxCell id="0" />
        <mxCell id="1" parent="0" />
        <mxCell id="2debaab0fafb2da2-10" value="Contents" style="html=1;rounded=0;shadow=0;comic=0;labelBackgroundColor=none;strokeWidth=2;fontFamily=Verdana;fontSize=12;align=center;shape=mxgraph.ios7ui.horLines;" parent="1" vertex="1">
          <mxGeometry x="672.5" y="425" width="135" height="50" as="geometry" />
        </mxCell>
        <mxCell id="21ea969265ad0168-30" value="Comment" style="html=1;rounded=0;shadow=0;comic=0;labelBackgroundColor=none;strokeWidth=2;fontFamily=Verdana;fontSize=12;align=center;shape=mxgraph.ios7ui.horLines;" parent="1" vertex="1">
          <mxGeometry x="380" y="590" width="135" height="50" as="geometry" />
        </mxCell>
        <mxCell id="kpX_EDyXYjeDeVf5ygxx-11" style="edgeStyle=orthogonalEdgeStyle;rounded=0;orthogonalLoop=1;jettySize=auto;html=1;entryX=1;entryY=0.5;entryDx=0;entryDy=0;" edge="1" parent="1" source="kpX_EDyXYjeDeVf5ygxx-1" target="kpX_EDyXYjeDeVf5ygxx-9">
          <mxGeometry relative="1" as="geometry">
            <Array as="points">
              <mxPoint x="480" y="425" />
            </Array>
          </mxGeometry>
        </mxCell>
        <mxCell id="kpX_EDyXYjeDeVf5ygxx-19" style="edgeStyle=orthogonalEdgeStyle;rounded=0;orthogonalLoop=1;jettySize=auto;html=1;entryX=0;entryY=0.5;entryDx=0;entryDy=0;" edge="1" parent="1" source="kpX_EDyXYjeDeVf5ygxx-1" target="kpX_EDyXYjeDeVf5ygxx-17">
          <mxGeometry relative="1" as="geometry" />
        </mxCell>
        <mxCell id="kpX_EDyXYjeDeVf5ygxx-1" value="Info" style="html=1;rounded=0;shadow=0;comic=0;labelBackgroundColor=none;strokeWidth=2;fontFamily=Verdana;fontSize=12;align=center;shape=mxgraph.ios7ui.horLines;" vertex="1" parent="1">
          <mxGeometry x="415" y="275" width="135" height="50" as="geometry" />
        </mxCell>
        <mxCell id="kpX_EDyXYjeDeVf5ygxx-3" value="" style="endArrow=classic;html=1;rounded=0;entryX=0;entryY=0.5;entryDx=0;entryDy=0;" edge="1" parent="1" target="kpX_EDyXYjeDeVf5ygxx-4">
          <mxGeometry width="50" height="50" relative="1" as="geometry">
            <mxPoint x="120" y="300" as="sourcePoint" />
            <mxPoint x="200" y="298" as="targetPoint" />
          </mxGeometry>
        </mxCell>
        <mxCell id="kpX_EDyXYjeDeVf5ygxx-6" style="edgeStyle=orthogonalEdgeStyle;rounded=0;orthogonalLoop=1;jettySize=auto;html=1;" edge="1" parent="1" source="kpX_EDyXYjeDeVf5ygxx-4" target="kpX_EDyXYjeDeVf5ygxx-1">
          <mxGeometry relative="1" as="geometry" />
        </mxCell>
        <mxCell id="kpX_EDyXYjeDeVf5ygxx-4" value="1.회원가입" style="ellipse;whiteSpace=wrap;html=1;aspect=fixed;" vertex="1" parent="1">
          <mxGeometry x="240" y="260" width="80" height="80" as="geometry" />
        </mxCell>
        <mxCell id="kpX_EDyXYjeDeVf5ygxx-7" value="사용자 정보" style="text;html=1;align=center;verticalAlign=middle;resizable=0;points=[];autosize=1;strokeColor=none;fillColor=none;" vertex="1" parent="1">
          <mxGeometry x="140" y="260" width="80" height="20" as="geometry" />
        </mxCell>
        <mxCell id="kpX_EDyXYjeDeVf5ygxx-13" style="edgeStyle=orthogonalEdgeStyle;rounded=0;orthogonalLoop=1;jettySize=auto;html=1;entryX=0.333;entryY=1.1;entryDx=0;entryDy=0;entryPerimeter=0;" edge="1" parent="1" source="kpX_EDyXYjeDeVf5ygxx-9" target="kpX_EDyXYjeDeVf5ygxx-1">
          <mxGeometry relative="1" as="geometry">
            <Array as="points">
              <mxPoint x="460" y="410" />
            </Array>
          </mxGeometry>
        </mxCell>
        <mxCell id="kpX_EDyXYjeDeVf5ygxx-9" value="2. 로그인" style="ellipse;whiteSpace=wrap;html=1;aspect=fixed;" vertex="1" parent="1">
          <mxGeometry x="240" y="385" width="80" height="80" as="geometry" />
        </mxCell>
        <mxCell id="kpX_EDyXYjeDeVf5ygxx-12" value="사용자 확인" style="text;html=1;align=center;verticalAlign=middle;resizable=0;points=[];autosize=1;strokeColor=none;fillColor=none;" vertex="1" parent="1">
          <mxGeometry x="360" y="440" width="80" height="20" as="geometry" />
        </mxCell>
        <mxCell id="kpX_EDyXYjeDeVf5ygxx-14" value="로그인 신청" style="text;html=1;align=center;verticalAlign=middle;resizable=0;points=[];autosize=1;strokeColor=none;fillColor=none;" vertex="1" parent="1">
          <mxGeometry x="350" y="380" width="80" height="20" as="geometry" />
        </mxCell>
        <mxCell id="kpX_EDyXYjeDeVf5ygxx-20" style="edgeStyle=orthogonalEdgeStyle;rounded=0;orthogonalLoop=1;jettySize=auto;html=1;" edge="1" parent="1" source="kpX_EDyXYjeDeVf5ygxx-17" target="2debaab0fafb2da2-10">
          <mxGeometry relative="1" as="geometry" />
        </mxCell>
        <mxCell id="kpX_EDyXYjeDeVf5ygxx-17" value="3. 질문 등록" style="ellipse;whiteSpace=wrap;html=1;aspect=fixed;" vertex="1" parent="1">
          <mxGeometry x="700" y="260" width="80" height="80" as="geometry" />
        </mxCell>
        <mxCell id="kpX_EDyXYjeDeVf5ygxx-21" value="사용자 정보" style="text;html=1;align=center;verticalAlign=middle;resizable=0;points=[];autosize=1;strokeColor=none;fillColor=none;" vertex="1" parent="1">
          <mxGeometry x="590" y="270" width="80" height="20" as="geometry" />
        </mxCell>
        <mxCell id="kpX_EDyXYjeDeVf5ygxx-22" value="· 제목&lt;br&gt;· 내용" style="text;html=1;align=center;verticalAlign=middle;resizable=0;points=[];autosize=1;strokeColor=none;fillColor=none;" vertex="1" parent="1">
          <mxGeometry x="755" y="360" width="50" height="30" as="geometry" />
        </mxCell>
      </root>
    </mxGraphModel>
  </diagram>
</mxfile>
